<?xml version="1.0" encoding="utf-8"?>
<!-- Generator: Adobe Illustrator 23.0.3, SVG Export Plug-In . SVG Version: 6.00 Build 0)  -->
<svg version="1.1" id="Capa_1" xmlns="http://www.w3.org/2000/svg" xmlns:xlink="http://www.w3.org/1999/xlink" x="0px" y="0px"
	 viewBox="0 0 43 56" style="enable-background:new 0 0 43 56;" xml:space="preserve">
<style type="text/css">
	.st0{fill:#C62A6A;}
	.st1{fill:#659C35;}
	.st2{fill:#E53384;}
</style>
<g>
	<path class="st0" d="M40.7,32c1.4-1,2.3-2.6,2.3-4.5c0-2.1-1.2-4-3-4.9c0,0,0-0.1,0-0.1c0-2.6-1.8-4.7-4.2-5.3
		c-0.6-2.4-2.8-4.2-5.3-4.2c-2.4,0-4.5,1.6-5.2,3.8c-0.9-1.7-2.7-2.8-4.8-2.8c-1.9,0-3.5,0.9-4.5,2.3c-1-1.4-2.6-2.3-4.5-2.3
		c-2.2,0-4,1.3-4.9,3.1C4,17.5,2,19.8,2,22.5c0,0.5,0.1,1.1,0.2,1.6c-1.4,1-2.2,2.6-2.2,4.4C0,30.3,0.9,32,2.3,33
		c-0.8,1-1.3,2.2-1.3,3.5c0,2.7,2,5,4.6,5.4C5.2,42.7,5,43.6,5,44.5c0,2.6,1.8,4.7,4.2,5.3c0.6,2.4,2.8,4.2,5.3,4.2
		c1.2,0,2.2-0.4,3.1-1c0.9,1.8,2.8,3,4.9,3c1.9,0,3.7-1,4.6-2.5c0.7,0.3,1.5,0.5,2.4,0.5c2.9,0,5.2-2.2,5.5-5c2.8-0.2,5-2.6,5-5.5
		c0-0.7-0.1-1.3-0.4-1.9c2-0.8,3.4-2.8,3.4-5.1C43,34.6,42.1,33,40.7,32z"/>
	<g>
		<path class="st1" d="M20.5,0c0,0,0,0,0.1,0c0.1,0,0.1,0,0.1,0H20.5z"/>
		<path class="st1" d="M7.1,16.2c1-1.3,2.6-2.2,4.4-2.2c1.9,0,3.5,0.9,4.5,2.3c1-1.4,2.6-2.3,4.5-2.3c2,0,3.8,1.1,4.8,2.8
			c0.7-2.2,2.8-3.8,5.2-3.8c1.9,0,3.6,1,4.6,2.5c2.3-1.7,4-3.9,4.9-6.5c-9.9-3.4-13,1-13,1c-0.6-7.4-5.6-9.7-6.4-10
			c-0.8,0.3-5.8,2.6-6.4,10c0,0-3.1-4.4-13-1C2.1,12,4.3,14.4,7.1,16.2z"/>
	</g>
	<path class="st2" d="M9.9,29c-1.2,0-2.5-0.5-3.6-1.6c-0.4-0.4-0.3-1,0.1-1.4c0.4-0.4,1-0.3,1.4,0.1c1.2,1.3,2.8,1.1,3.8,0.5
		c1-0.6,2-1.9,1.4-3.5c-0.2-0.5,0.1-1.1,0.6-1.3c0.5-0.2,1.1,0.1,1.3,0.6c0.9,2.6-0.5,4.9-2.3,5.9C11.8,28.7,10.8,29,9.9,29z"/>
	<path class="st2" d="M30.8,41.3c-1.2,0-2.5-0.5-3.6-1.6c-0.4-0.4-0.3-1,0.1-1.4c0.4-0.4,1-0.3,1.4,0.1c1.2,1.3,2.8,1.1,3.8,0.5
		c1-0.6,2-1.9,1.4-3.5c-0.2-0.5,0.1-1.1,0.6-1.3c0.5-0.2,1.1,0.1,1.3,0.6c0.9,2.6-0.5,4.9-2.3,5.9C32.7,41,31.7,41.3,30.8,41.3z"/>
	<path class="st2" d="M14.2,42c-0.2,0-0.5,0-0.7,0c-2-0.3-4.2-1.8-4.4-4.5c0-0.5,0.4-1,0.9-1.1c0.5,0,1,0.4,1.1,0.9
		c0.2,1.8,1.5,2.6,2.7,2.7c1.1,0.1,2.7-0.3,3.3-2c0.2-0.5,0.8-0.8,1.3-0.6c0.5,0.2,0.8,0.8,0.6,1.3C18.1,41,16.1,42,14.2,42z"/>
	<path class="st2" d="M23.2,32.7c-0.2,0-0.5,0-0.7,0c-2-0.3-4.2-1.8-4.4-4.5c0-0.5,0.4-1,0.9-1.1c0.5,0,1,0.4,1.1,0.9
		c0.2,1.8,1.5,2.6,2.7,2.7c1.1,0.1,2.7-0.3,3.3-2c0.2-0.5,0.8-0.8,1.3-0.6c0.5,0.2,0.8,0.8,0.6,1.3C27.1,31.7,25.1,32.7,23.2,32.7z"
		/>
	<path class="st2" d="M22,50.2c-1.3,0-2.7-0.5-3.7-1.8c-0.4-0.4-0.3-1.1,0.1-1.4c0.4-0.4,1.1-0.3,1.4,0.1c1.2,1.4,2.8,1.2,3.8,0.6
		c1-0.5,2-1.8,1.5-3.5c-0.2-0.5,0.2-1.1,0.7-1.2s1.1,0.2,1.2,0.7c0.8,2.7-0.7,4.8-2.5,5.8C23.7,49.9,22.9,50.2,22,50.2z"/>
	<path class="st2" d="M34.1,27c-1,0-1.9-0.3-2.7-0.7c-1.8-1-3.2-3.3-2.3-5.9c0.2-0.5,0.7-0.8,1.3-0.6c0.5,0.2,0.8,0.7,0.6,1.3
		c-0.5,1.7,0.4,3,1.4,3.6c1,0.6,2.6,0.8,3.8-0.5c0.4-0.4,1-0.4,1.4-0.1c0.4,0.4,0.4,1,0.1,1.4C36.7,26.5,35.4,27,34.1,27z"/>
</g>
</svg>
