<?xml version="1.0" encoding="utf-8"?>
<!-- Generator: Adobe Illustrator 23.0.3, SVG Export Plug-In . SVG Version: 6.00 Build 0)  -->
<svg version="1.1" id="Layer_1" xmlns="http://www.w3.org/2000/svg" xmlns:xlink="http://www.w3.org/1999/xlink" x="0px" y="0px"
	 viewBox="0 0 448 512" style="enable-background:new 0 0 448 512;" xml:space="preserve">
<style type="text/css">
	.st0{fill-rule:evenodd;clip-rule:evenodd;fill:#BABABA;}
	.st1{fill-rule:evenodd;clip-rule:evenodd;fill:#F5DF87;}
	.st2{fill-rule:evenodd;clip-rule:evenodd;fill:#D9A13F;}
	.st3{fill-rule:evenodd;clip-rule:evenodd;fill:#606060;}
	.st4{fill-rule:evenodd;clip-rule:evenodd;fill:#A66D30;}
	.st5{fill:#FAB41E;}
	.st6{fill:#FCD110;}
	.st7{fill:#A6664C;}
	.st8{fill:#954D30;}
	.st9{fill:#F26D1F;}
</style>
<g>
	<path class="st0" d="M230.1,0c-21.7,0-40.9,8.1-52.7,20.7c-2.4-0.2-4.8-0.3-7.2-0.3c-31.4,0-56.9,19.5-56.9,43.6v0.1
		C87,65.3,66.1,82,66.1,102.5L224,127.7l164-25.2c0-20.5-20.8-37.2-47.2-38.4V64c0-24.1-25.5-43.6-56.9-43.6l-1.4,0
		C270.7,8,251.6,0,230.1,0z"/>
	<path class="st1" d="M405,151.4l-187.2-24.4L43,151.4c-22.6,77.8-37.5,190-21.5,291.8l190.3,28.5l214.6-28.5
		C442.5,341.4,427.6,229.1,405,151.4z"/>
	<path class="st2" d="M224,102.5H42.8c-13.4,0-24.4,11-24.4,24.4c0,13.4,11,24.4,24.4,24.4h368.9c13.4,0,24.4-11,24.4-24.4
		c0-13.4-11-24.4-24.4-24.4H224z"/>
	<path class="st2" d="M426.4,443.2H21.6C-8.9,461.3-12.1,512,45.1,512h357.8C460.1,512,456.9,461.3,426.4,443.2z"/>
	<path class="st3" d="M170.2,20.4c-31.4,0-56.9,19.5-56.9,43.6v0.1C87,65.3,66.1,82,66.1,102.5h112c4.8-40.6,32.3-76.4,72.7-99.9
		C244.3,0.9,237.4,0,230.1,0c-21.7,0-40.9,8.1-52.7,20.7C175,20.5,172.6,20.4,170.2,20.4z"/>
	<path class="st4" d="M60.1,102.5H42.8c-13.4,0-24.4,11-24.4,24.4c0,13.4,11,24.4,24.4,24.4h48.5c-5.4,0-10.3-1.8-14.4-4.7
		c-6-4.5-10-11.6-10-19.7c0-9.7,5.8-18.1,14-22.1c3.2-1.5,6.7-2.4,10.4-2.4H60.1z"/>
	<path class="st2" d="M76.8,151.4H43c-22.6,77.8-37.5,190-21.5,291.8h34C39.5,341.4,54.4,229.1,77,151.4H76.8z"/>
	<path class="st4" d="M70.1,443.2H21.6C-8.9,461.3-12.1,512,45.1,512h48.5c-51.6,0-54.1-41.4-31.5-62.7
		C64.5,447,67.2,445,70.1,443.2z"/>
</g>
<g>
	<g>
		<path class="st5" d="M230.5,168.7c-1.6-1.3-3.8-1.3-5.4,0c-11.3,9.3-17.7,23-17.7,37.6c0,14.6,6.5,28.3,17.7,37.6
			c0.8,0.6,1.7,1,2.7,1s1.9-0.3,2.7-1c11.3-9.3,17.7-23,17.7-37.6S241.8,178,230.5,168.7z"/>
		<path class="st5" d="M138.6,203.9c-2,0.2-3.6,1.8-3.8,3.8c-1.4,14.6,3.8,28.8,14.1,39.2c9.2,9.2,21.6,14.3,34.5,14.3
			c1.5,0,3.1-0.1,4.7-0.2c2-0.2,3.6-1.8,3.8-3.8c1.4-14.6-3.8-28.8-14.1-39.2C167.4,207.7,153.2,202.5,138.6,203.9z"/>
		<path class="st5" d="M173.8,299.2c1.3-1.6,1.3-3.8,0-5.4c-9.3-11.3-23-17.7-37.6-17.7c-14.6,0-28.3,6.5-37.6,17.7
			c-1.3,1.6-1.3,3.8,0,5.4c9.3,11.3,23,17.7,37.6,17.7C150.7,316.9,164.5,310.5,173.8,299.2z"/>
		<path class="st5" d="M186.9,332.5c-14.6-1.4-28.8,3.8-39.2,14.1c-10.3,10.3-15.5,24.6-14.1,39.2c0.2,2,1.8,3.6,3.8,3.8
			c1.6,0.1,3.1,0.2,4.7,0.2c12.9,0,25.3-5.1,34.5-14.3c10.3-10.3,15.5-24.6,14.1-39.2C190.5,334.3,188.9,332.6,186.9,332.5z"/>
		<path class="st5" d="M228.9,350.5c-1.6-1.3-3.8-1.3-5.4,0c-11.3,9.3-17.7,23-17.7,37.6s6.5,28.3,17.7,37.6c0.8,0.6,1.7,1,2.7,1
			c1,0,1.9-0.3,2.7-1c11.3-9.3,17.7-23,17.7-37.6C246.7,373.6,240.2,359.8,228.9,350.5z"/>
		<path class="st5" d="M266,333.6c-2,0.2-3.6,1.8-3.8,3.8c-1.4,14.6,3.8,28.8,14.1,39.2c9.2,9.2,21.6,14.3,34.5,14.3
			c1.5,0,3.1-0.1,4.7-0.2c2-0.2,3.6-1.8,3.8-3.8c1.4-14.6-3.8-28.8-14.1-39.2C294.9,337.3,280.6,332.2,266,333.6z"/>
		<path class="st5" d="M355.6,295.4c-9.3-11.3-23-17.7-37.6-17.7c-14.6,0-28.3,6.5-37.6,17.7c-1.3,1.6-1.3,3.8,0,5.4
			c9.3,11.3,23,17.7,37.6,17.7c14.6,0,28.3-6.5,37.6-17.7C356.9,299.2,356.9,296.9,355.6,295.4z"/>
		<path class="st5" d="M267.2,262.1c1.6,0.1,3.1,0.2,4.7,0.2c12.9,0,25.3-5.1,34.5-14.3c10.3-10.3,15.5-24.6,14.1-39.2
			c-0.2-2-1.8-3.6-3.8-3.8c-14.6-1.4-28.8,3.8-39.2,14.1c-10.3,10.3-15.5,24.6-14.1,39.2C263.5,260.3,265.1,261.9,267.2,262.1z"/>
	</g>
	<g>
		<path class="st6" d="M181.1,177.2c-2-0.6-4,0.3-5,2.1c-6.8,12.9-7.6,28.1-2,41.6c5.6,13.5,16.8,23.7,30.8,28
			c0.4,0.1,0.8,0.2,1.2,0.2c1.5,0,3-0.8,3.8-2.3c6.8-12.9,7.6-28.1,2-41.6C206.3,191.7,195.1,181.5,181.1,177.2z"/>
		<path class="st6" d="M135.5,280.6c6,2.5,12.4,3.7,18.7,3.7c7.9,0,15.7-1.9,22.9-5.7c1.8-1,2.7-3.1,2.1-5
			c-4.3-14-14.5-25.2-28-30.8c-13.5-5.6-28.6-4.9-41.6,2c-1.8,1-2.7,3.1-2.1,5C111.8,263.8,122,275,135.5,280.6z"/>
		<path class="st6" d="M176.5,314.4c-12.9-6.8-28.1-7.6-41.6-2c-13.5,5.6-23.7,16.8-28,30.8c-0.6,1.9,0.3,4,2.1,5
			c7.2,3.8,15,5.7,22.9,5.7c6.3,0,12.7-1.2,18.7-3.7c13.5-5.6,23.7-16.8,28-30.8C179.2,317.5,178.3,315.4,176.5,314.4z"/>
		<path class="st6" d="M203.4,345.1c-14,4.3-25.2,14.5-30.8,28c-5.6,13.5-4.9,28.6,2,41.6c0.8,1.4,2.2,2.3,3.8,2.3
			c0.4,0,0.8-0.1,1.2-0.2c14-4.3,25.2-14.5,30.8-28c5.6-13.5,4.9-28.6-2-41.6C207.5,345.4,205.4,344.5,203.4,345.1z"/>
		<path class="st6" d="M249.2,345.7c-1.9-0.6-4,0.3-5,2.1c-6.8,12.9-7.6,28.1-2,41.6c5.6,13.5,16.8,23.7,30.8,28
			c0.4,0.1,0.8,0.2,1.2,0.2c1.5,0,3-0.8,3.8-2.3c6.8-12.9,7.6-28.1,2-41.6C274.4,360.2,263.2,350,249.2,345.7z"/>
		<path class="st6" d="M318.5,313.9c-13.5-5.6-28.6-4.9-41.6,2c-1.8,1-2.7,3.1-2.1,5c4.3,14,14.5,25.2,28,30.8
			c6,2.5,12.4,3.7,18.7,3.7c7.9,0,15.7-1.9,22.9-5.7c1.8-1,2.7-3.1,2.1-5C342.2,330.7,332,319.5,318.5,313.9z"/>
		<path class="st6" d="M345.1,246.3c-12.9-6.8-28.1-7.6-41.6-2c-13.5,5.6-23.7,16.8-28,30.8c-0.6,1.9,0.3,4,2.1,5
			c7.2,3.8,15,5.7,22.9,5.7c6.3,0,12.7-1.2,18.7-3.7c13.5-5.6,23.7-16.8,28-30.8C347.7,249.4,346.9,247.3,345.1,246.3z"/>
		<path class="st6" d="M249.4,249.6c0.4,0,0.8-0.1,1.2-0.2c14-4.3,25.2-14.5,30.8-28c5.6-13.5,4.9-28.6-2-41.6c-1-1.8-3.1-2.7-5-2.1
			c-14,4.3-25.2,14.5-30.8,28c-5.6,13.5-4.9,28.6,2,41.6C246.4,248.8,247.9,249.6,249.4,249.6z"/>
	</g>
	<circle class="st7" cx="227" cy="297.3" r="74.3"/>
	<path class="st8" d="M237.7,363.1c-41,0-74.3-33.3-74.3-74.3c0-21,8.7-40,22.8-53.6c-20.1,13.3-33.4,36.1-33.4,62.1
		c0,41,33.3,74.3,74.3,74.3c20,0,38.2-7.9,51.5-20.8C266.8,358.6,252.8,363.1,237.7,363.1z"/>
	<g>
		<circle class="st9" cx="227" cy="297.3" r="8.5"/>
		<circle class="st9" cx="227" cy="254.8" r="8.5"/>
		<circle class="st9" cx="197" cy="267.2" r="8.5"/>
		<circle class="st9" cx="184.6" cy="297.3" r="8.5"/>
		<circle class="st9" cx="197" cy="327.3" r="8.5"/>
		<circle class="st9" cx="227" cy="339.7" r="8.5"/>
		<circle class="st9" cx="257.1" cy="327.3" r="8.5"/>
		<circle class="st9" cx="269.5" cy="297.3" r="8.5"/>
		<circle class="st9" cx="257.1" cy="267.2" r="8.5"/>
	</g>
</g>
</svg>
