<?xml version="1.0" encoding="utf-8"?>
<!-- Generator: Adobe Illustrator 23.0.3, SVG Export Plug-In . SVG Version: 6.00 Build 0)  -->
<svg version="1.1" id="Capa_1" xmlns="http://www.w3.org/2000/svg" xmlns:xlink="http://www.w3.org/1999/xlink" x="0px" y="0px"
	 viewBox="0 0 56.7 54.4" style="enable-background:new 0 0 56.7 54.4;" xml:space="preserve">
<style type="text/css">
	.st0{fill:#88C057;}
	.st1{fill:#659C35;}
	.st2{fill:#436B1C;}
</style>
<g>
	<path class="st0" d="M45.1,12.5c0-1-0.6-1.9-1.4-2.3c0.4-0.8,0.6-1.7,0.6-2.6c0-3.4-2.8-6.1-6.2-6.1c-0.9,0-1.7,0.2-2.5,0.5
		c-0.9-1.2-2.4-2-4.1-2c-1.9,0-3.5,1-4.4,2.6c-0.9-0.7-2.1-1-3.3-1c-3.2,0-5.8,2.5-5.8,5.7c0,0.2,0,0.5,0,0.7
		c-2.3,0.8-3.9,2.9-3.9,5.4c0,1.9,1,3.7,2.5,4.7c-0.6,0.8-1,1.8-1,2.9c0,2.7,2.2,4.9,5,4.9c1.2,0,2.2-0.4,3.1-1c1.1,1.5,3,2.6,5,2.6
		c2.2,0,4.1-1.1,5.2-2.8c0.7,1.2,2.1,2.1,3.7,2.1c2.3,0,4.2-1.9,4.2-4.2c0-0.5-0.1-1-0.3-1.5c1.5-0.6,2.6-2.1,2.6-3.8
		c0-0.8-0.2-1.6-0.7-2.2C44.6,14.4,45.1,13.5,45.1,12.5z"/>
	<path class="st1" d="M22.8,25.4c-0.6,0.3-1.3,0.4-2,0.4c-2.8,0-5-2.2-5-4.9c0-1.1,0.4-2.1,1-2.9c-1.5-1-2.5-2.7-2.5-4.7
		c0-0.9,0.2-1.8,0.6-2.6c-1.7-1-3.8-0.8-5.3,0.6c-0.1,0.1-0.2,0.3-0.3,0.4c-1.6-0.8-3.6-0.5-4.9,0.8c-1,1-1.4,2.4-1.2,3.8
		c-0.8,0.1-1.5,0.5-2.1,1c-1.5,1.4-1.5,3.8,0,5.2c0.6,0.6,1.4,0.9,2.2,1c-0.2,1.4,0.2,2.9,1.3,3.9c1.2,1.1,2.8,1.5,4.3,1.2
		c-0.3,1,0,2.2,0.8,3c1.2,1.2,3.2,1.2,4.5,0c0.3-0.3,0.5-0.6,0.6-0.9c1.1,0.5,2.5,0.2,3.4-0.7c0.4-0.4,0.7-1,0.8-1.5
		c0.7,0.2,1.5,0,2-0.5c0.5-0.5,0.7-1.3,0.5-1.9C22,26,22.4,25.7,22.8,25.4z"/>
	<path class="st1" d="M55.5,18.1c-0.1-0.1-0.3-0.2-0.4-0.3c0.8-1.6,0.5-3.5-0.8-4.8c-1-1-2.5-1.4-3.8-1.2c-0.1-0.7-0.5-1.5-1-2
		c-1.5-1.4-3.8-1.4-5.3,0C44,9.8,43.9,9.9,43.9,10c0,0.1-0.1,0.2-0.1,0.2c0.8,0.5,1.4,1.3,1.4,2.3c0,1-0.6,1.9-1.4,2.3
		c0.4,0.6,0.7,1.4,0.7,2.2c0,1.7-1.1,3.2-2.6,3.8c0.2,0.5,0.3,1,0.3,1.5c0,2.3-1.9,4.2-4.2,4.2c-0.5,0-1.1-0.1-1.6-0.3
		c0.1,0.1,0.1,0.1,0.1,0.2c0.4,0.4,1,0.7,1.5,0.8c-0.2,0.7,0,1.4,0.5,2c0.5,0.5,1.3,0.7,2,0.5c0.2,0.6,0.6,1.2,1.1,1.7
		c1.8,1.8,4.7,1.8,6.5,0c0.5-0.5,0.8-1,1-1.6c1.1,0.2,2.3-0.2,3.2-1c1-1,1.3-2.4,0.9-3.6c0.8-0.1,1.7-0.5,2.3-1.2
		C57.2,22.4,57.2,19.7,55.5,18.1z"/>
	<path class="st2" d="M40.4,29.7c-0.7,0.2-1.4,0-2-0.5c-0.3-0.3-0.5-0.7-0.6-1.1c0-0.2-0.1-0.4-0.2-0.6C33.7,31.5,31,39,31,39
		c1.3-4.6,1.1-9.2,0.7-12.3c-0.8,0.4-1.8,0.6-2.8,0.6c-1,0-1.9-0.2-2.7-0.6C28,32.9,27,43,27,43c-1.9-7.5-6-12.2-7.9-14.1
		c-0.1,0.1-0.3,0.2-0.4,0.4c-0.1,0.3-0.3,0.5-0.5,0.7c-0.9,0.9-2.3,1.1-3.4,0.7c-0.2,0.3-0.4,0.6-0.6,0.9c-0.3,0.3-0.7,0.6-1.1,0.7
		c5,0,10.8,10,11.5,20.7c0.1,0.8,0.7,1.4,1.5,1.4h5c0.8,0,1.4-0.6,1.5-1.3c0.5-4.1,1.9-21,9.7-21c-0.3-0.2-0.5-0.4-0.8-0.6
		C41,30.9,40.6,30.4,40.4,29.7z"/>
	<path class="st1" d="M23.5,14c-0.1,0-0.2,0-0.4-0.1c-2.5-1-3.8-3.8-2.8-6.4c1-2.5,3.8-3.8,6.4-2.8c0.5,0.2,0.8,0.8,0.6,1.3
		c-0.2,0.5-0.8,0.8-1.3,0.6c-1.5-0.6-3.2,0.2-3.8,1.6c-0.6,1.5,0.2,3.2,1.6,3.8c0.5,0.2,0.8,0.8,0.6,1.3C24.2,13.8,23.9,14,23.5,14z
		"/>
	<path class="st0" d="M49.1,24.5c-0.6,0-1.2-0.1-1.8-0.3c-1.2-0.5-2.2-1.4-2.7-2.6c-0.2-0.5,0-1.1,0.5-1.3c0.5-0.2,1.1,0,1.3,0.5
		c0.3,0.7,0.9,1.3,1.6,1.5c0.7,0.3,1.5,0.3,2.2,0c0.7-0.3,1.3-0.9,1.5-1.6c0.3-0.7,0.3-1.5,0-2.2c-0.2-0.5,0-1.1,0.5-1.3
		c0.5-0.2,1.1,0,1.3,0.5c0.5,1.2,0.6,2.5,0.1,3.8s-1.4,2.2-2.6,2.7C50.4,24.3,49.8,24.5,49.1,24.5z"/>
	<path class="st1" d="M35.4,22c-1.7,0-3.4-0.9-4.3-2.5c-0.3-0.5-0.1-1.1,0.4-1.4c0.5-0.3,1.1-0.1,1.4,0.4c0.4,0.7,1,1.2,1.8,1.4
		c0.7,0.2,1.5,0.1,2.2-0.3s1.2-1,1.4-1.8c0.2-0.7,0.1-1.5-0.3-2.2c-0.3-0.5-0.1-1.1,0.4-1.4c0.5-0.3,1.1-0.1,1.4,0.4
		c0.6,1.1,0.8,2.5,0.5,3.7s-1.2,2.3-2.3,3C37,21.8,36.2,22,35.4,22z"/>
	<path class="st1" d="M31.9,16.6c-0.7,0-1.4-0.2-2.1-0.5c-2.4-1.2-3.5-4.1-2.3-6.5c0.2-0.5,0.8-0.7,1.3-0.5c0.5,0.2,0.7,0.8,0.5,1.3
		c-0.7,1.4-0.1,3.2,1.3,3.9c1.4,0.7,3.2,0.1,3.9-1.3c0.2-0.5,0.8-0.7,1.3-0.5c0.5,0.2,0.7,0.8,0.5,1.3
		C35.5,15.6,33.7,16.6,31.9,16.6z"/>
	<path class="st1" d="M24.3,22.2c-0.7,0-1.3-0.1-2-0.4c-2.5-1.1-3.6-4-2.5-6.5c0.2-0.5,0.8-0.7,1.3-0.5c0.5,0.2,0.7,0.8,0.5,1.3
		c-0.6,1.5,0,3.2,1.5,3.8c0.7,0.3,1.5,0.3,2.2,0c0.7-0.3,1.3-0.8,1.6-1.5c0.2-0.5,0.8-0.7,1.3-0.5c0.5,0.2,0.7,0.8,0.5,1.3
		c-0.5,1.2-1.5,2.1-2.7,2.6C25.5,22.1,24.9,22.2,24.3,22.2z"/>
	<path class="st1" d="M35.4,11.3c-0.2,0-0.3,0-0.5,0c-1.3-0.1-2.5-0.8-3.3-1.8c-0.4-0.4-0.3-1.1,0.1-1.4c0.4-0.4,1.1-0.3,1.4,0.1
		c0.5,0.6,1.2,1,2,1c0.8,0.1,1.5-0.2,2.1-0.6c1.2-1,1.4-2.9,0.4-4.1c-0.4-0.4-0.3-1.1,0.1-1.4c0.4-0.4,1.1-0.3,1.4,0.1
		c1.7,2.1,1.4,5.2-0.7,6.9C37.6,10.9,36.5,11.3,35.4,11.3z"/>
	<path class="st0" d="M9.9,23.4c-0.6,0-1.2-0.1-1.8-0.4c-2.5-1-3.7-3.9-2.7-6.4c0.2-0.5,0.8-0.8,1.3-0.6c0.5,0.2,0.8,0.8,0.6,1.3
		c-0.6,1.5,0.1,3.2,1.6,3.8c1.5,0.6,3.2-0.1,3.8-1.6c0.2-0.5,0.8-0.8,1.3-0.6c0.5,0.2,0.8,0.8,0.6,1.3C13.7,22.2,11.8,23.4,9.9,23.4
		z"/>
</g>
</svg>
