<?xml version="1.0" encoding="utf-8"?>
<!-- Generator: Adobe Illustrator 23.0.3, SVG Export Plug-In . SVG Version: 6.00 Build 0)  -->
<svg version="1.1" id="Layer_1" xmlns="http://www.w3.org/2000/svg" xmlns:xlink="http://www.w3.org/1999/xlink" x="0px" y="0px"
	 viewBox="0 0 512 512" style="enable-background:new 0 0 512 512;" xml:space="preserve">
<style type="text/css">
	.st0{fill:#212121;}
	.st1{fill:#202223;}
	.st2{fill:#343A3D;}
	.st3{fill:#FFD31A;}
</style>
<path class="st0" d="M274.8,325.7l-34.1,64.1c-3,5.6-1.5,12.5,3.5,16.3l41.5,31.2c2.1,1.6,4.6,2.4,7.1,2.4h17.1
	c12.9,0,24.9,6.5,32.3,17.5l2.4,3.6c3.2,4.7-0.1,11.1-5.6,11.1h-54.8c-8.1,0-16.1-2.6-22.8-7.4l-43.3-31.2
	c-16.8-12.1-22.4-35.1-13.1-53.9l35.2-72L274.8,325.7z"/>
<path d="M432.7,123.3h4.8c28.4,0,51.5-13.7,51.5-30.7l0,0c0-1-1.4-1.8-3-1.8h-53.3V123.3z"/>
<path class="st0" d="M432.7,61.2h27.8c28.4,0,51.5,13.7,51.5,30.7l0,0c0,1-1.4,1.8-3,1.8h-76.2L432.7,61.2L432.7,61.2z"/>
<path class="st1" d="M416.2,130.4v16.4l0,0v67.1c0,68.1-53.4,123.2-119.2,123.2H141.9L333,204.6v-83.9c0-13.4,3.2-26,8.8-37
	c11-21.6,31.4-37.3,55.6-41.4c4.1-1.3,8.4-2,12.9-2c24.2,0,43.8,20.3,43.8,45.3C454.1,108.5,437.6,127.4,416.2,130.4z"/>
<path class="st2" d="M354.9,202.3v-81.7c0-13.4,3.2-26,8.8-37c11-21.6,31.4-37.3,55.6-41.4c0.6-0.2,1.3-0.4,1.9-0.6
	c-3.5-0.9-7.2-1.4-11-1.4c-4.5,0-8.8,0.7-12.9,2c-24.2,4.1-44.6,19.8-55.6,41.4c-5.6,11.1-8.8,23.6-8.8,37v83.9L141.9,337.1h21.9
	l189.2-131.3C354.2,205.1,354.9,203.7,354.9,202.3z"/>
<ellipse class="st3" cx="407.8" cy="77.6" rx="8.1" ry="8.1"/>
<path class="st1" d="M334.5,261.6c-0.5,0.4-1,0.7-1.5,1.1l-144,103c-9.8,7-23.3,4.5-30.1-5.7l-3.2-4.8c-2.9-4.3-7-7.3-11.6-8.7
	c-6.1-1.9-12.9-1-18.5,3l-9.6,6.8c-4.9,3.5-10.7,4.6-16.2,3.6c-0.9-0.2-1.8-0.4-2.7-0.7c-4.5-1.5-8.5-4.5-11.4-8.8
	c-2.8-4.2-6.7-7.1-11.1-8.4c-6.2-1.9-13.2-1-18.8,3.1l-15.8,11.3c-9.8,7-23.3,4.5-30-5.6l-9.4-14.1c-1.3-2-0.8-4.6,1.1-6
	l254.7-182.3c0.5-0.4,1-0.7,1.5-1.1c4.7-3.2,9.6-5.6,14.7-7.5c0.6-0.2,1.1-0.4,1.7-0.6c0.2-0.1,0.4-0.1,0.6-0.2
	c0.6-0.2,1.2-0.4,1.8-0.5c0.2-0.1,0.4-0.1,0.6-0.2c1-0.3,1.9-0.5,2.9-0.7c0.6-0.1,1.1-0.2,1.7-0.4c0.7-0.1,1.4-0.3,2.1-0.4
	c0.3-0.1,0.7-0.1,1-0.2c0.4-0.1,0.7-0.1,1.1-0.2c0.4-0.1,0.8-0.1,1.2-0.1c0.3,0,0.6-0.1,0.8-0.1c0.5,0,0.9-0.1,1.4-0.1
	c0.2,0,0.4,0,0.6,0c2.5-0.2,5-0.2,7.4-0.1c0,0,0.1,0,0.1,0c0.6,0,1.3,0.1,1.9,0.1c0,0,0,0,0.1,0c19.5,1.5,38.2,11.8,50.2,29.7
	C370.8,197,363.7,239.4,334.5,261.6z"/>
<g>
	<path class="st2" d="M313.3,138.8c-6.3,1.9-12.3,4.7-18.1,8.6c-0.5,0.3-1,0.7-1.5,1.1L39,330.7c-1.9,1.4-2.4,4-1.1,6l5.1,7.7
		l173.7-120.5c3.7-2.5,8.7-1.6,11.3,2c2.5,3.7,1.6,8.7-2,11.3L74.8,342.1c-6.2-1.9-13.2-1-18.8,3.1l-15.8,11.3
		c-9.8,7-23.3,4.5-30-5.6l-9.4-14.1c-1.3-2-0.8-4.6,1.1-6l254.7-182.3c0.5-0.4,1-0.7,1.5-1.1c4.7-3.2,9.6-5.6,14.7-7.5
		c0.6-0.2,1.1-0.4,1.7-0.6c0.2-0.1,0.4-0.1,0.6-0.2c0.6-0.2,1.2-0.4,1.8-0.5c0.2-0.1,0.4-0.1,0.6-0.2c1-0.3,1.9-0.5,2.9-0.7
		c0.6-0.1,1.1-0.2,1.7-0.4C292.4,135.2,303.2,135.8,313.3,138.8z"/>
	<path class="st2" d="M294.4,242.4L144.2,346.5c-6.1-1.9-12.9-1-18.5,3l-9.6,6.8c-4.9,3.5-10.7,4.6-16.2,3.6
		c-0.9-0.2-1.8-0.4-2.7-0.7l187.9-130.2c3.7-2.5,8.7-1.6,11.2,2C299,234.8,298.1,239.9,294.4,242.4z"/>
</g>
</svg>
